<svg width="36" height="36" viewBox="0 0 36 36" fill="none" xmlns="http://www.w3.org/2000/svg">
<path d="M16.9194 1.50888C16.8484 1.51533 16.6226 1.53791 16.4194 1.55404C11.7323 1.97655 7.34194 4.50521 4.56129 8.39174C3.0129 10.5527 2.02258 13.004 1.64839 15.6004C1.51613 16.5067 1.5 16.7744 1.5 18.0032C1.5 19.2321 1.51613 19.4998 1.64839 20.4061C2.54516 26.602 6.95484 31.8077 12.9355 33.7364C14.0065 34.0815 15.1355 34.317 16.4194 34.4589C16.9194 34.5137 19.0806 34.5137 19.5806 34.4589C21.7968 34.2138 23.6742 33.6654 25.5258 32.7204C25.8097 32.5753 25.8645 32.5366 25.8258 32.5043C25.8 32.485 24.5903 30.8626 23.1387 28.9016L20.5 25.3376L17.1935 20.4448C15.3742 17.7549 13.8774 15.5552 13.8645 15.5552C13.8516 15.552 13.8387 17.7259 13.8323 20.3803C13.8226 25.028 13.8194 25.2151 13.7613 25.3247C13.6774 25.4828 13.6129 25.5473 13.4774 25.6182C13.3742 25.6698 13.2839 25.6795 12.7968 25.6795H12.2387L12.0903 25.586C11.9935 25.5247 11.9226 25.4441 11.8742 25.3505L11.8065 25.2054L11.8129 18.7386L11.8226 12.2686L11.9226 12.1428C11.9742 12.0751 12.0839 11.988 12.1613 11.9461C12.2935 11.8815 12.3452 11.8751 12.9032 11.8751C13.5613 11.8751 13.671 11.9009 13.8419 12.088C13.8903 12.1396 15.6806 14.836 17.8226 18.0839C19.9645 21.3318 22.8935 25.7666 24.3323 27.9437L26.9452 31.9012L27.0774 31.8141C28.2484 31.0529 29.4871 29.9692 30.4677 28.8403C32.5548 26.4439 33.9 23.5218 34.3516 20.4061C34.4839 19.4998 34.5 19.2321 34.5 18.0032C34.5 16.7744 34.4839 16.5067 34.3516 15.6004C33.4548 9.40449 29.0452 4.19881 23.0645 2.27006C22.0097 1.92817 20.8871 1.69272 19.629 1.55081C19.3194 1.51856 17.1871 1.48308 16.9194 1.50888ZM23.6742 11.4881C23.829 11.5655 23.9548 11.7138 24 11.8686C24.0258 11.9525 24.0323 13.7458 24.0258 17.7871L24.0161 23.5863L22.9935 22.0188L21.9677 20.4513V16.2357C21.9677 13.5103 21.9806 11.9783 22 11.9041C22.0516 11.7235 22.1645 11.5816 22.3194 11.4977C22.4516 11.43 22.5 11.4236 23.0065 11.4236C23.4839 11.4236 23.5677 11.43 23.6742 11.4881Z" fill="#09090B"/>
</svg>
