<svg width="36" height="36" viewBox="0 0 36 36" fill="none" xmlns="http://www.w3.org/2000/svg">
<mask id="mask0_17076_363523" style="mask-type:luminance" maskUnits="userSpaceOnUse" x="0" y="7" width="36" height="22">
<path d="M0 7.2002H36V28.8002H0V7.2002Z" fill="white"/>
</mask>
<g mask="url(#mask0_17076_363523)">
<path fill-rule="evenodd" clip-rule="evenodd" d="M18 7.2002C13.2 7.2002 10.2 9.6002 9 14.4002C10.8 12.0002 12.9 11.1002 15.3 11.7002C16.6693 12.0422 17.648 13.0362 18.7313 14.1355C20.496 15.9269 22.5387 18.0002 27 18.0002C31.8 18.0002 34.8 15.6002 36 10.8002C34.2 13.2002 32.1 14.1002 29.7 13.5002C28.3307 13.1582 27.352 12.1642 26.2687 11.0649C24.504 9.27353 22.4613 7.2002 18 7.2002ZM9 18.0002C4.2 18.0002 1.2 20.4002 0 25.2002C1.8 22.8002 3.9 21.9002 6.3 22.5002C7.66933 22.8429 8.648 23.8362 9.73133 24.9355C11.496 26.7269 13.5387 28.8002 18 28.8002C22.8 28.8002 25.8 26.4002 27 21.6002C25.2 24.0002 23.1 24.9002 20.7 24.3002C19.3307 23.9582 18.352 22.9642 17.2687 21.8649C15.504 20.0735 13.4613 18.0002 9 18.0002Z" fill="#09090B"/>
</g>
</svg>
