<svg xmlns="http://www.w3.org/2000/svg" viewBox="0 0 86.978 22" width="86.978" height="22" preserveAspectRatio="xMinYMid meet" role="img" aria-hidden="true"><path d="M1.465 0 L1.465 -14.551 L4.414 -14.551 L9.443 -6.533 Q9.834 -5.908 10.293 -5.073 Q10.752 -4.238 11.23 -3.145 Q11.152 -4.199 11.113 -5.225 Q11.074 -6.25 11.074 -6.914 L11.074 -14.551 L13.721 -14.551 L13.721 0 L10.762 0 L6.221 -7.217 Q5.84 -7.822 5.503 -8.418 Q5.166 -9.014 4.795 -9.717 Q4.424 -10.42 3.936 -11.367 Q4.004 -10.02 4.063 -8.926 Q4.121 -7.832 4.121 -7.227 L4.121 0 Z M20.357 0.225 Q18.707 0.225 17.521 -0.469 Q16.334 -1.162 15.694 -2.422 Q15.055 -3.682 15.055 -5.391 Q15.055 -7.07 15.685 -8.345 Q16.314 -9.619 17.472 -10.337 Q18.629 -11.055 20.191 -11.055 Q21.52 -11.055 22.657 -10.474 Q23.795 -9.893 24.488 -8.677 Q25.182 -7.461 25.182 -5.547 L25.182 -4.746 L17.584 -4.746 Q17.633 -3.291 18.399 -2.529 Q19.166 -1.768 20.387 -1.768 Q21.227 -1.768 21.827 -2.129 Q22.428 -2.49 22.682 -3.184 L25.016 -2.705 Q24.625 -1.387 23.399 -0.581 Q22.174 0.225 20.357 0.225 Z M17.594 -6.475 L22.711 -6.475 Q22.594 -7.646 21.964 -8.354 Q21.334 -9.062 20.201 -9.062 Q19.039 -9.062 18.36 -8.315 Q17.682 -7.568 17.594 -6.475 Z M28.391 0 L25.139 -10.918 L27.814 -10.918 L28.889 -6.641 Q29.094 -5.742 29.343 -4.692 Q29.592 -3.643 29.826 -2.402 Q30.061 -3.613 30.314 -4.663 Q30.568 -5.713 30.803 -6.641 L31.906 -10.918 L34.328 -10.918 L35.402 -6.641 Q35.617 -5.732 35.871 -4.683 Q36.125 -3.633 36.369 -2.402 Q36.594 -3.623 36.833 -4.673 Q37.072 -5.723 37.297 -6.641 L38.371 -10.918 L41.066 -10.918 L37.805 0 L35.236 0 L33.957 -4.453 Q33.732 -5.234 33.518 -6.157 Q33.303 -7.08 33.098 -7.998 Q32.893 -7.08 32.673 -6.152 Q32.453 -5.225 32.238 -4.453 L30.959 0 Z M46 0 L46 -14.551 L51.439 -14.551 Q53.109 -14.551 54.252 -13.926 Q55.395 -13.301 55.98 -12.212 Q56.566 -11.123 56.566 -9.736 Q56.566 -8.34 55.976 -7.251 Q55.385 -6.162 54.232 -5.542 Q53.08 -4.922 51.4 -4.922 L48.607 -4.922 L48.607 0 Z M48.607 -7.07 L51.059 -7.07 Q52.533 -7.07 53.217 -7.822 Q53.9 -8.574 53.9 -9.736 Q53.9 -10.898 53.217 -11.631 Q52.533 -12.363 51.039 -12.363 L48.607 -12.363 Z M57.783 0 L57.783 -10.918 L60.244 -10.918 L60.244 -9.092 L60.361 -9.092 Q60.654 -10.039 61.387 -10.552 Q62.119 -11.064 63.057 -11.064 Q63.545 -11.064 63.984 -10.996 L63.984 -8.662 Q63.828 -8.701 63.477 -8.745 Q63.125 -8.789 62.783 -8.789 Q61.719 -8.789 61.021 -8.13 Q60.322 -7.471 60.322 -6.426 L60.322 0 Z M69.02 0.225 Q67.428 0.225 66.256 -0.483 Q65.084 -1.191 64.444 -2.456 Q63.805 -3.721 63.805 -5.4 Q63.805 -7.1 64.444 -8.374 Q65.084 -9.648 66.256 -10.352 Q67.428 -11.055 69.02 -11.055 Q70.611 -11.055 71.783 -10.352 Q72.955 -9.648 73.6 -8.374 Q74.244 -7.1 74.244 -5.4 Q74.244 -3.721 73.6 -2.456 Q72.955 -1.191 71.783 -0.483 Q70.611 0.225 69.02 0.225 Z M69.02 -1.836 Q69.908 -1.836 70.494 -2.314 Q71.08 -2.793 71.373 -3.604 Q71.666 -4.414 71.666 -5.41 Q71.666 -6.416 71.373 -7.227 Q71.08 -8.037 70.494 -8.516 Q69.908 -8.994 69.02 -8.994 Q68.141 -8.994 67.555 -8.516 Q66.969 -8.037 66.681 -7.227 Q66.393 -6.416 66.393 -5.41 Q66.393 -4.414 66.681 -3.604 Q66.969 -2.793 67.555 -2.314 Q68.141 -1.836 69.02 -1.836 Z M75.451 -10.918 L78 -10.918 L78 0.635 Q78 2.412 77.004 3.247 Q76.008 4.082 74.221 4.082 L73.703 4.082 L73.703 2.002 L74.074 2.002 Q74.816 2.002 75.134 1.65 Q75.451 1.299 75.451 0.605 Z M76.721 -12.461 Q76.115 -12.461 75.681 -12.866 Q75.246 -13.271 75.246 -13.857 Q75.246 -14.434 75.681 -14.839 Q76.115 -15.244 76.721 -15.244 Q77.336 -15.244 77.771 -14.839 Q78.205 -14.434 78.205 -13.857 Q78.205 -13.271 77.771 -12.866 Q77.336 -12.461 76.721 -12.461 Z M84.52 0.225 Q82.869 0.225 81.683 -0.469 Q80.496 -1.162 79.856 -2.422 Q79.217 -3.682 79.217 -5.391 Q79.217 -7.07 79.847 -8.345 Q80.477 -9.619 81.634 -10.337 Q82.791 -11.055 84.354 -11.055 Q85.682 -11.055 86.819 -10.474 Q87.957 -9.893 88.65 -8.677 Q89.344 -7.461 89.344 -5.547 L89.344 -4.746 L81.746 -4.746 Q81.795 -3.291 82.562 -2.529 Q83.328 -1.768 84.549 -1.768 Q85.389 -1.768 85.989 -2.129 Q86.59 -2.49 86.844 -3.184 L89.178 -2.705 Q88.787 -1.387 87.562 -0.581 Q86.336 0.225 84.52 0.225 Z M81.756 -6.475 L86.873 -6.475 Q86.756 -7.646 86.126 -8.354 Q85.496 -9.062 84.363 -9.062 Q83.201 -9.062 82.522 -8.315 Q81.844 -7.568 81.756 -6.475 Z M95.258 0.225 Q93.666 0.225 92.494 -0.483 Q91.322 -1.191 90.683 -2.456 Q90.043 -3.721 90.043 -5.4 Q90.043 -7.1 90.683 -8.374 Q91.322 -9.648 92.494 -10.352 Q93.666 -11.055 95.258 -11.055 Q97.084 -11.055 98.349 -10.142 Q99.613 -9.229 99.965 -7.627 L97.592 -7.129 Q97.387 -7.979 96.791 -8.486 Q96.195 -8.994 95.277 -8.994 Q93.949 -8.994 93.29 -7.969 Q92.631 -6.943 92.631 -5.41 Q92.631 -4.404 92.924 -3.594 Q93.217 -2.783 93.803 -2.31 Q94.389 -1.836 95.277 -1.836 Q96.215 -1.836 96.815 -2.368 Q97.416 -2.9 97.621 -3.779 L99.994 -3.281 Q99.643 -1.65 98.373 -0.713 Q97.104 0.225 95.258 0.225 Z M106.221 -10.918 L106.221 -8.926 L104.111 -8.926 L104.111 -3.076 Q104.111 -2.48 104.36 -2.202 Q104.609 -1.924 105.195 -1.924 Q105.371 -1.924 105.654 -1.968 Q105.938 -2.012 106.123 -2.051 L106.523 -0.088 Q106.104 0.039 105.664 0.093 Q105.225 0.146 104.824 0.146 Q103.252 0.146 102.412 -0.635 Q101.572 -1.416 101.572 -2.861 L101.572 -8.926 L100.02 -8.926 L100.02 -10.918 L101.572 -10.918 L101.572 -13.516 L104.111 -13.516 L104.111 -10.918 Z" fill="#f7f7f7" transform="translate(-1.213 15.621) scale(0.828)" /></svg>